# This file uses centimeters as units for non-parametric coordinates.

mtllib Rock.mtl
g default
v -0.744920 -0.010502 0.493548
v 0.980312 -0.010502 0.855191
v -0.515875 2.134640 0.782832
v 0.456938 2.233252 0.782832
v -0.515875 2.134640 -0.782832
v 0.456938 2.233252 -0.782832
v -0.980202 -0.010502 -0.782832
v 0.594917 -0.010502 -0.782832
v 0.782832 2.579400 -0.260944
v -0.782832 2.579400 -0.260944
v -1.095905 -0.010502 -0.260944
v 0.782832 -0.010502 -0.260944
v 0.782832 2.579400 0.260944
v -0.782832 2.579400 0.260944
v -1.095905 -0.010502 0.260944
v 0.965671 -0.001680 0.220024
v 0.782832 1.716099 0.782832
v -0.782832 1.716099 0.782832
v -1.091997 1.716099 0.260944
v -1.091997 1.716099 -0.260944
v -0.782832 1.716099 -0.782832
v 0.782832 1.716099 -0.782832
v 1.235177 1.716099 -0.260944
v 1.235177 1.716099 0.260944
v 0.930976 0.852798 0.942422
v -0.782832 0.852798 0.782832
v -1.091997 0.852798 0.260944
v -1.091997 0.852798 -0.260944
v -0.968895 0.852798 -0.882907
v 0.782832 0.852798 -0.782832
v 1.235177 0.852798 -0.260944
v 1.235177 0.852798 0.260944
v -0.260944 3.370904 0.260944
v -0.260944 2.579400 0.782832
v -0.260944 1.716099 1.218600
v -0.260944 0.852798 1.218600
v -0.260944 -0.010502 0.782832
v -0.260944 -0.010502 0.260944
v -0.260944 -0.010502 -0.260944
v -0.260944 -0.010502 -1.071209
v -0.260944 0.852798 -1.121993
v -0.260944 1.716099 -1.121993
v -0.260944 2.579400 -0.782832
v -0.260944 3.370904 -0.260944
v 0.260944 3.370904 0.260944
v 0.260944 2.579400 0.782832
v 0.260944 1.716099 1.218600
v 0.260944 0.852798 1.218600
v 0.260944 -0.010502 0.942356
v 0.260944 -0.010502 0.260944
v 0.260944 -0.010502 -0.260944
v 0.260944 -0.010502 -1.174397
v 0.260944 0.852798 -1.121993
v 0.260944 1.716099 -1.121993
v 0.260944 2.579400 -0.782832
v 0.260944 3.370904 -0.260944
vt 0.375000 0.000000
vt 0.625000 0.000000
vt 0.375000 0.250000
vt 0.625000 0.250000
vt 0.375000 0.500000
vt 0.625000 0.500000
vt 0.375000 0.750000
vt 0.625000 0.750000
vt 0.375000 1.000000
vt 0.625000 1.000000
vt 0.875000 0.000000
vt 0.875000 0.250000
vt 0.125000 0.000000
vt 0.125000 0.250000
vt 0.625000 0.416667
vt 0.791667 0.250000
vt 0.208333 0.250000
vt 0.375000 0.416667
vt 0.208333 0.000000
vt 0.375000 0.833333
vt 0.625000 0.833333
vt 0.791667 0.000000
vt 0.625000 0.333333
vt 0.708333 0.250000
vt 0.291667 0.250000
vt 0.375000 0.333333
vt 0.291667 0.000000
vt 0.375000 0.916667
vt 0.625000 0.916667
vt 0.708333 0.000000
vt 0.625000 0.166667
vt 0.375000 0.166667
vt 0.291667 0.166667
vt 0.208333 0.166667
vt 0.125000 0.166667
vt 0.375000 0.583333
vt 0.625000 0.583333
vt 0.875000 0.166667
vt 0.791667 0.166667
vt 0.708333 0.166667
vt 0.625000 0.083333
vt 0.375000 0.083333
vt 0.291667 0.083333
vt 0.208333 0.083333
vt 0.125000 0.083333
vt 0.375000 0.666667
vt 0.625000 0.666667
vt 0.875000 0.083333
vt 0.791667 0.083333
vt 0.708333 0.083333
vt 0.458333 0.333333
vt 0.458333 0.250000
vt 0.458333 0.166667
vt 0.458333 0.083333
vt 0.458333 0.000000
vt 0.458333 1.000000
vt 0.458333 0.916667
vt 0.458333 0.833333
vt 0.458333 0.750000
vt 0.458333 0.666667
vt 0.458333 0.583333
vt 0.458333 0.500000
vt 0.458333 0.416667
vt 0.541667 0.333333
vt 0.541667 0.250000
vt 0.541667 0.166667
vt 0.541667 0.083333
vt 0.541667 0.000000
vt 0.541667 1.000000
vt 0.541667 0.916667
vt 0.541667 0.833333
vt 0.541667 0.750000
vt 0.541667 0.666667
vt 0.541667 0.583333
vt 0.541667 0.500000
vt 0.541667 0.416667
vn 0.075384 -0.282438 0.956319
vn 0.248258 -0.192753 0.949323
vn 0.372161 -0.054066 0.926592
vn 0.189145 -0.110136 0.975753
vn 0.379618 0.501742 0.777268
vn 0.645741 0.407476 0.645741
vn 0.796812 0.516501 0.313556
vn 0.480294 0.733918 0.480294
vn 0.314552 -0.012862 -0.949153
vn 0.590362 -0.020249 -0.806884
vn 0.648587 -0.047533 -0.759655
vn 0.306040 -0.025782 -0.951670
vn 0.003600 -0.999993 -0.000783
vn 0.006239 -0.999979 -0.001762
vn 0.005587 -0.999961 -0.006763
vn 0.003518 -0.999985 -0.004259
vn 0.967269 -0.139776 0.211788
vn 0.963933 -0.264739 0.027317
vn 0.978050 -0.088247 0.188759
vn 0.922692 -0.004176 0.385515
vn -0.937149 -0.062767 0.343236
vn -0.746766 -0.124179 0.653391
vn -0.821495 -0.047987 0.568193
vn -0.949420 -0.029561 0.312615
vn 0.480294 0.733918 -0.480294
vn 0.796812 0.516501 -0.313556
vn 0.645741 0.407476 -0.645741
vn 0.379618 0.501742 -0.777268
vn -0.978889 -0.003219 -0.204365
vn -0.994100 0.000439 -0.108464
vn -0.987878 0.033697 -0.151533
vn -0.957092 0.062259 -0.283019
vn 0.000000 -1.000000 0.000000
vn 0.000000 -1.000000 0.000000
vn 0.004676 -0.999978 0.004676
vn 0.001744 -0.999997 0.001744
vn 0.914980 -0.165312 -0.368082
vn 0.864031 -0.336559 -0.374404
vn 0.812772 -0.301393 -0.498561
vn 0.796965 -0.157590 -0.583105
vn 0.264395 0.228541 0.936944
vn 0.536667 0.182722 0.823773
vn 0.605473 0.366024 0.706703
vn 0.174820 0.445817 0.877887
vn -0.946843 0.166427 0.275301
vn -0.819649 0.176670 0.544943
vn -0.754904 0.339290 0.561251
vn -0.896136 0.353828 0.267856
vn -0.953796 0.199813 -0.224386
vn -0.896136 0.353828 -0.267856
vn -0.853004 0.235876 -0.465561
vn -0.754904 0.339290 -0.561250
vn 0.135529 0.364088 -0.921451
vn 0.525993 0.317977 -0.788810
vn 0.545597 0.074768 -0.834706
vn 0.256499 0.155060 -0.954026
vn 0.823142 0.446282 -0.351097
vn 0.909051 0.215568 -0.356590
vn 0.726584 0.209813 -0.654259
vn 0.676125 0.381170 -0.630527
vn 0.823142 0.446282 0.351096
vn 0.917374 0.249458 0.310153
vn 0.764322 0.260861 0.589714
vn 0.676125 0.381170 0.630527
vn -0.646193 0.406042 0.646193
vn -0.393351 0.497566 0.773112
vn -0.484750 0.728035 0.484750
vn -0.789035 0.509623 0.343086
vn -0.640603 0.092071 0.762332
vn -0.315759 0.190885 0.929440
vn -0.175377 0.445888 0.877739
vn -0.605874 0.366267 0.706233
vn -0.602391 -0.179496 0.777757
vn -0.368416 -0.177188 0.912619
vn -0.551314 -0.333284 0.764837
vn -0.401820 -0.358687 0.842546
vn 0.000000 -1.000000 0.000000
vn 0.000000 -1.000000 0.000000
vn 0.000000 -1.000000 0.000000
vn 0.000000 -1.000000 0.000000
vn 0.000000 -1.000000 0.000000
vn 0.000000 -1.000000 0.000000
vn 0.000000 -1.000000 0.000000
vn 0.000000 -1.000000 0.000000
vn -0.379709 -0.005820 -0.925088
vn -0.246281 0.003231 -0.969193
vn -0.249089 -0.047782 -0.967301
vn -0.345564 -0.079434 -0.935027
vn -0.446389 0.142277 -0.883456
vn -0.219145 0.182384 -0.958495
vn -0.526428 0.318240 -0.788414
vn -0.136067 0.364161 -0.921343
vn -0.789035 0.509623 -0.343086
vn -0.484750 0.728035 -0.484750
vn -0.393351 0.497566 -0.773112
vn -0.646193 0.406042 -0.646193
s 1
g pCube1
usemtl lambert2SG
f 49/68/1 2/2/2 25/41/3 48/67/4
s 2
f 46/65/5 4/4/6 13/23/7 45/64/8
s 3
f 53/73/9 30/47/10 8/8/11 52/72/12
s 4
f 50/70/13 16/29/14 2/10/15 49/69/16
s 5
f 2/2/17 16/30/18 32/50/19 25/41/20
s 6
f 15/27/21 1/1/22 26/42/23 27/43/24
s 2
f 56/76/25 9/15/26 6/6/27 55/75/28
s 6
f 7/13/29 11/19/30 28/44/31 29/45/32
s 4
f 52/72/33 8/8/34 12/21/35 51/71/36
s 5
f 31/49/37 12/22/38 8/11/39 30/48/40
s 2
f 56/76/25 45/64/8 13/23/7 9/15/26
s 6
f 11/19/30 15/27/21 27/43/24 28/44/31
s 4
f 51/71/36 12/21/35 16/29/14 50/70/13
s 5
f 32/50/19 16/30/18 12/22/38 31/49/37
s 1
f 47/66/41 17/31/42 4/4/43 46/65/44
s 6
f 19/33/45 18/32/46 3/3/47 14/25/48
f 20/34/49 19/33/45 14/25/48 10/17/50
f 21/35/51 20/34/49 10/17/50 5/14/52
s 3
f 55/75/53 6/6/54 22/37/55 54/74/56
s 5
f 9/16/57 23/39/58 22/38/59 6/12/60
f 13/24/61 24/40/62 23/39/58 9/16/57
f 17/31/63 24/40/62 13/24/61 4/4/64
s 1
f 48/67/4 25/41/3 17/31/42 47/66/41
s 6
f 27/43/24 26/42/23 18/32/46 19/33/45
f 28/44/31 27/43/24 19/33/45 20/34/49
f 29/45/32 28/44/31 20/34/49 21/35/51
s 3
f 54/74/56 22/37/55 30/47/10 53/73/9
s 5
f 23/39/58 31/49/37 30/48/40 22/38/59
f 24/40/62 32/50/19 31/49/37 23/39/58
f 25/41/20 32/50/19 24/40/62 17/31/63
s 2
f 3/3/65 34/52/66 33/51/67 14/26/68
s 1
f 18/32/69 35/53/70 34/52/71 3/3/72
f 26/42/73 36/54/74 35/53/70 18/32/69
f 1/1/75 37/55/76 36/54/74 26/42/73
s 4
f 15/28/77 38/57/78 37/56/79 1/9/80
f 11/20/81 39/58/82 38/57/78 15/28/77
f 7/7/83 40/59/84 39/58/82 11/20/81
s 3
f 29/46/85 41/60/86 40/59/87 7/7/88
f 21/36/89 42/61/90 41/60/86 29/46/85
f 5/5/91 43/62/92 42/61/90 21/36/89
s 2
f 10/18/93 44/63/94 43/62/95 5/5/96
f 14/26/68 33/51/67 44/63/94 10/18/93
f 34/52/66 46/65/5 45/64/8 33/51/67
s 1
f 35/53/70 47/66/41 46/65/44 34/52/71
f 36/54/74 48/67/4 47/66/41 35/53/70
f 37/55/76 49/68/1 48/67/4 36/54/74
s 4
f 38/57/78 50/70/13 49/69/16 37/56/79
f 39/58/82 51/71/36 50/70/13 38/57/78
f 40/59/84 52/72/33 51/71/36 39/58/82
s 3
f 41/60/86 53/73/9 52/72/12 40/59/87
f 42/61/90 54/74/56 53/73/9 41/60/86
f 43/62/92 55/75/53 54/74/56 42/61/90
s 2
f 44/63/94 56/76/25 55/75/28 43/62/95
f 44/63/94 33/51/67 45/64/8 56/76/25
