# This file uses centimeters as units for non-parametric coordinates.

mtllib Rock_02.mtl
g default
v -1.564872 -0.011121 1.456703
v 2.059366 -0.011121 1.433483
v -1.083712 1.261685 1.155074
v 0.959900 1.320196 1.155074
v -1.083712 1.033996 -1.155074
v 0.959900 1.020925 -0.724164
v -2.059136 -0.011121 -1.155074
v 1.642248 -0.011121 -1.155074
v 1.644514 1.525581 -0.385025
v -1.644514 1.365492 -0.385025
v -2.302194 -0.011121 -0.385025
v 2.518628 -0.011121 -0.385025
v 1.644514 1.525581 0.385025
v -1.614447 1.374758 0.385025
v -2.302194 -0.011121 0.385025
v 2.701769 -0.005887 0.324648
v 1.644514 1.013347 1.155074
v -1.644514 1.013347 1.155074
v -2.293986 1.013347 0.385025
v -2.293986 1.013347 -0.385025
v -1.644514 1.013347 -1.155074
v 1.644514 1.013347 -0.694027
v 1.923126 1.013347 -0.385025
v 1.517555 1.013347 0.385025
v 1.955725 0.501113 1.390551
v -1.644514 0.501113 1.155074
v -2.293986 0.501113 0.385025
v -2.293986 0.501113 -0.385025
v -2.035381 0.501113 -1.302736
v 1.644514 0.501113 -1.155074
v 2.594768 0.501113 -0.385025
v 2.594768 0.501113 0.385025
v -0.004553 2.323098 0.385025
v -0.548171 1.525581 0.437212
v -0.548171 1.013347 1.798054
v -0.548171 0.501113 1.798054
v -0.548171 -0.011121 1.646910
v -0.548171 -0.011121 0.385025
v -0.548171 -0.011121 -0.385025
v -0.548171 -0.011121 -1.580576
v -0.548171 0.501113 -1.655509
v -0.548171 1.013347 -1.655509
v -0.548171 1.525581 -1.155074
v -0.163158 1.881076 -0.385025
v 0.548171 2.373978 0.385025
v 0.548171 1.525581 0.684646
v 0.548171 1.013347 1.798054
v 0.548171 0.501113 1.798054
v 0.548171 -0.011121 1.874819
v 0.548171 -0.011121 0.385025
v 0.548171 -0.011121 -0.385025
v 0.548171 -0.011121 -1.732831
v 0.548171 0.501113 -1.655509
v 0.548171 1.013347 -1.655509
v 0.548171 1.525581 -1.155074
v 0.455047 2.446700 0.069653
vt 0.375000 0.000000
vt 0.625000 0.000000
vt 0.375000 0.250000
vt 0.625000 0.250000
vt 0.375000 0.500000
vt 0.625000 0.500000
vt 0.375000 0.750000
vt 0.625000 0.750000
vt 0.375000 1.000000
vt 0.625000 1.000000
vt 0.875000 0.000000
vt 0.875000 0.250000
vt 0.125000 0.000000
vt 0.125000 0.250000
vt 0.625000 0.416667
vt 0.791667 0.250000
vt 0.208333 0.250000
vt 0.375000 0.416667
vt 0.208333 0.000000
vt 0.375000 0.833333
vt 0.625000 0.833333
vt 0.791667 0.000000
vt 0.625000 0.333333
vt 0.708333 0.250000
vt 0.291667 0.250000
vt 0.375000 0.333333
vt 0.291667 0.000000
vt 0.375000 0.916667
vt 0.625000 0.916667
vt 0.708333 0.000000
vt 0.625000 0.166667
vt 0.375000 0.166667
vt 0.291667 0.166667
vt 0.208333 0.166667
vt 0.125000 0.166667
vt 0.375000 0.583333
vt 0.625000 0.583333
vt 0.875000 0.166667
vt 0.791667 0.166667
vt 0.708333 0.166667
vt 0.625000 0.083333
vt 0.375000 0.083333
vt 0.291667 0.083333
vt 0.208333 0.083333
vt 0.125000 0.083333
vt 0.375000 0.666667
vt 0.625000 0.666667
vt 0.875000 0.083333
vt 0.791667 0.083333
vt 0.708333 0.083333
vt 0.458333 0.333333
vt 0.458333 0.250000
vt 0.458333 0.166667
vt 0.458333 0.083333
vt 0.458333 0.000000
vt 0.458333 1.000000
vt 0.458333 0.916667
vt 0.458333 0.833333
vt 0.458333 0.750000
vt 0.458333 0.666667
vt 0.458333 0.583333
vt 0.458333 0.500000
vt 0.458333 0.416667
vt 0.541667 0.333333
vt 0.541667 0.250000
vt 0.541667 0.166667
vt 0.541667 0.083333
vt 0.541667 0.000000
vt 0.541667 1.000000
vt 0.541667 0.916667
vt 0.541667 0.833333
vt 0.541667 0.750000
vt 0.541667 0.666667
vt 0.541667 0.583333
vt 0.541667 0.500000
vt 0.541667 0.416667
vn 0.119821 0.051581 0.991455
vn 0.276539 0.139076 0.950886
vn 0.319162 0.218448 0.922180
vn 0.167668 0.116210 0.978970
vn 0.073745 0.506296 0.859201
vn 0.205063 0.628435 0.750346
vn 0.456493 0.788858 0.411482
vn 0.279302 0.846640 0.452980
vn 0.262357 0.125539 -0.956770
vn 0.492152 0.233134 -0.838710
vn 0.440648 0.066592 -0.895207
vn 0.203051 0.037047 -0.978467
vn 0.000771 -1.000000 0.000157
vn 0.001250 -0.999999 0.000592
vn 0.001193 -0.999998 -0.001720
vn 0.000696 -0.999999 -0.001003
vn 0.843219 0.165511 0.511457
vn 0.954441 0.120855 0.272830
vn 0.766630 0.598375 0.232863
vn 0.757071 0.548177 0.355452
vn -0.922163 0.082985 0.377796
vn -0.793031 0.120517 0.597141
vn -0.782848 0.070726 0.618180
vn -0.922468 0.043545 0.383610
vn 0.300364 0.890048 -0.342923
vn 0.552380 0.661888 -0.506735
vn 0.479900 0.550335 -0.683248
vn 0.241485 0.714233 -0.656929
vn -0.958493 -0.011160 -0.284898
vn -0.988148 0.001547 -0.153499
vn -0.970243 0.117174 -0.211891
vn -0.901564 0.207639 -0.379565
vn 0.000000 -1.000000 0.000000
vn 0.000000 -1.000000 0.000000
vn 0.000878 -0.999997 0.002248
vn 0.000383 -0.999999 0.000980
vn 0.776002 0.515268 -0.363758
vn 0.827493 -0.018163 -0.561181
vn 0.643813 -0.049273 -0.763595
vn 0.633542 0.222086 -0.741149
vn 0.097867 0.691545 0.715672
vn 0.322976 0.501867 0.802381
vn 0.173176 0.841155 0.512317
vn -0.024491 0.918547 0.394552
vn -0.774705 0.549733 0.312452
vn -0.631062 0.545415 0.551620
vn -0.409056 0.832093 0.374559
vn -0.447689 0.871220 0.201370
vn -0.727004 0.644078 -0.237969
vn -0.390945 0.901815 -0.184096
vn -0.539034 0.713154 -0.448167
vn -0.269741 0.875710 -0.400464
vn 0.159473 0.787016 -0.595965
vn 0.487945 0.844019 -0.222579
vn 0.543467 0.547878 -0.635983
vn 0.254663 0.512006 -0.820364
vn 0.950483 0.302496 -0.071267
vn 0.662772 0.719288 -0.208226
vn 0.440553 0.573859 -0.690362
vn 0.292209 0.493993 -0.818893
vn 0.900461 0.313671 0.301297
vn 0.692870 0.688046 0.215692
vn 0.636936 0.738640 0.220733
vn 0.774140 0.527057 0.350596
vn -0.130105 0.665499 0.734972
vn -0.141968 0.520183 0.842173
vn -0.378545 0.815437 0.437910
vn -0.372729 0.923208 0.093597
vn -0.422741 0.381533 0.822023
vn -0.172369 0.664610 0.727037
vn -0.052858 0.919267 0.390070
vn -0.123018 0.887013 0.445055
vn -0.448091 0.045684 0.892820
vn -0.258520 0.007600 0.965976
vn -0.364694 0.107508 0.924900
vn -0.243630 0.022505 0.969607
vn 0.000000 -1.000000 0.000000
vn 0.000000 -1.000000 0.000000
vn 0.000000 -1.000000 0.000000
vn 0.000000 -1.000000 0.000000
vn 0.000000 -1.000000 0.000000
vn 0.000000 -1.000000 0.000000
vn 0.000000 -1.000000 0.000000
vn 0.000000 -1.000000 0.000000
vn -0.276983 -0.015031 -0.960757
vn -0.175699 0.008160 -0.984410
vn -0.176696 -0.120005 -0.976923
vn -0.246162 -0.200337 -0.948298
vn -0.324686 0.335501 -0.884318
vn -0.149642 0.440931 -0.884978
vn -0.380061 0.813450 -0.440287
vn -0.064059 0.729692 -0.680768
vn -0.416298 0.860451 -0.293805
vn -0.310643 0.875553 -0.370011
vn -0.311226 0.834183 -0.455276
vn -0.407399 0.815832 -0.410419
s 1
g pCube1
usemtl lambert2SG
f 49/68/1 2/2/2 25/41/3 48/67/4
s 2
f 46/65/5 4/4/6 13/23/7 45/64/8
s 3
f 53/73/9 30/47/10 8/8/11 52/72/12
s 4
f 50/70/13 16/29/14 2/10/15 49/69/16
s 5
f 2/2/17 16/30/18 32/50/19 25/41/20
s 6
f 15/27/21 1/1/22 26/42/23 27/43/24
s 2
f 56/76/25 9/15/26 6/6/27 55/75/28
s 6
f 7/13/29 11/19/30 28/44/31 29/45/32
s 4
f 52/72/33 8/8/34 12/21/35 51/71/36
s 5
f 31/49/37 12/22/38 8/11/39 30/48/40
s 2
f 56/76/25 45/64/8 13/23/7 9/15/26
s 6
f 11/19/30 15/27/21 27/43/24 28/44/31
s 4
f 51/71/36 12/21/35 16/29/14 50/70/13
s 5
f 32/50/19 16/30/18 12/22/38 31/49/37
s 1
f 47/66/41 17/31/42 4/4/43 46/65/44
s 6
f 19/33/45 18/32/46 3/3/47 14/25/48
f 20/34/49 19/33/45 14/25/48 10/17/50
f 21/35/51 20/34/49 10/17/50 5/14/52
s 3
f 55/75/53 6/6/54 22/37/55 54/74/56
s 5
f 9/16/57 23/39/58 22/38/59 6/12/60
f 13/24/61 24/40/62 23/39/58 9/16/57
f 17/31/63 24/40/62 13/24/61 4/4/64
s 1
f 48/67/4 25/41/3 17/31/42 47/66/41
s 6
f 27/43/24 26/42/23 18/32/46 19/33/45
f 28/44/31 27/43/24 19/33/45 20/34/49
f 29/45/32 28/44/31 20/34/49 21/35/51
s 3
f 54/74/56 22/37/55 30/47/10 53/73/9
s 5
f 23/39/58 31/49/37 30/48/40 22/38/59
f 24/40/62 32/50/19 31/49/37 23/39/58
f 25/41/20 32/50/19 24/40/62 17/31/63
s 2
f 3/3/65 34/52/66 33/51/67 14/26/68
s 1
f 18/32/69 35/53/70 34/52/71 3/3/72
f 26/42/73 36/54/74 35/53/70 18/32/69
f 1/1/75 37/55/76 36/54/74 26/42/73
s 4
f 15/28/77 38/57/78 37/56/79 1/9/80
f 11/20/81 39/58/82 38/57/78 15/28/77
f 7/7/83 40/59/84 39/58/82 11/20/81
s 3
f 29/46/85 41/60/86 40/59/87 7/7/88
f 21/36/89 42/61/90 41/60/86 29/46/85
f 5/5/91 43/62/92 42/61/90 21/36/89
s 2
f 10/18/93 44/63/94 43/62/95 5/5/96
f 14/26/68 33/51/67 44/63/94 10/18/93
f 34/52/66 46/65/5 45/64/8 33/51/67
s 1
f 35/53/70 47/66/41 46/65/44 34/52/71
f 36/54/74 48/67/4 47/66/41 35/53/70
f 37/55/76 49/68/1 48/67/4 36/54/74
s 4
f 38/57/78 50/70/13 49/69/16 37/56/79
f 39/58/82 51/71/36 50/70/13 38/57/78
f 40/59/84 52/72/33 51/71/36 39/58/82
s 3
f 41/60/86 53/73/9 52/72/12 40/59/87
f 42/61/90 54/74/56 53/73/9 41/60/86
f 43/62/92 55/75/53 54/74/56 42/61/90
s 2
f 44/63/94 56/76/25 55/75/28 43/62/95
f 44/63/94 33/51/67 45/64/8 56/76/25
